<?xml version="1.0" standalone="no"?>
<!DOCTYPE svg PUBLIC "-//W3C//DTD SVG 20010904//EN"
 "http://www.w3.org/TR/2001/REC-SVG-20010904/DTD/svg10.dtd">
<svg version="1.0" xmlns="http://www.w3.org/2000/svg"
 width="165.000000pt" height="165.000000pt" viewBox="0 0 165.000000 165.000000"
 preserveAspectRatio="xMidYMid meet">
<metadata>
Created by potrace 1.14, written by Peter Selinger 2001-2017
</metadata>
<g transform="translate(0.000000,165.000000) scale(0.100000,-0.100000)"
fill="#000000" stroke="none">
<path d="M798 1557 c-76 -120 -106 -178 -133 -262 -23 -66 -26 -92 -23 -152 7
-98 26 -137 247 -487 44 -70 85 -145 91 -165 25 -89 3 -245 -46 -322 -28 -45
-38 -50 -24 -14 5 13 8 64 7 112 -5 145 -50 227 -229 412 -126 131 -163 195
-163 284 0 31 -3 57 -6 57 -6 0 -34 -92 -47 -155 -16 -79 -3 -174 35 -249 28
-57 85 -138 123 -176 133 -135 174 -197 184 -281 l5 -41 -41 47 c-23 26 -87
77 -142 115 -56 37 -118 85 -138 105 -45 46 -79 111 -81 159 -3 49 -14 31 -20
-30 -6 -63 8 -156 30 -197 23 -45 91 -105 190 -167 49 -30 114 -74 147 -97 32
-24 63 -43 68 -43 6 0 38 19 72 41 231 157 332 293 340 464 5 93 -25 174 -120
320 -84 130 -222 358 -263 435 -40 75 -46 93 -48 156 -1 48 5 92 18 134 11 35
18 65 16 66 -2 2 -24 -29 -49 -69z"/>
</g>
</svg>
